<mxfile host="Electron" agent="Mozilla/5.0 (Windows NT 10.0; Win64; x64) AppleWebKit/537.36 (KHTML, like Gecko) draw.io/25.0.2 Chrome/128.0.6613.186 Electron/32.2.5 Safari/537.36" version="25.0.2">
  <diagram name="Page-1" id="N3uCyR_-eZ_1B1kW_3E9">
    <mxGraphModel dx="1434" dy="836" grid="1" gridSize="10" guides="1" tooltips="1" connect="1" arrows="1" fold="1" page="1" pageScale="1" pageWidth="827" pageHeight="1169" math="0" shadow="0">
      <root>
        <mxCell id="0" />
        <mxCell id="1" parent="0" />
        <mxCell id="orYQmtHI8F-aZwIQTSZj-3" value="&lt;span style=&quot;font-weight: 400;&quot;&gt;«layer» User interface&lt;/span&gt;" style="shape=folder;fontStyle=1;spacingTop=10;tabWidth=40;tabHeight=14;tabPosition=left;html=1;whiteSpace=wrap;" vertex="1" parent="1">
          <mxGeometry width="160" height="60" as="geometry" />
        </mxCell>
        <mxCell id="orYQmtHI8F-aZwIQTSZj-5" value="&lt;span style=&quot;font-weight: 400;&quot;&gt;«layer» Back-end&lt;/span&gt;" style="shape=folder;fontStyle=1;spacingTop=10;tabWidth=40;tabHeight=14;tabPosition=left;html=1;whiteSpace=wrap;" vertex="1" parent="1">
          <mxGeometry y="120" width="160" height="60" as="geometry" />
        </mxCell>
        <mxCell id="orYQmtHI8F-aZwIQTSZj-6" value="&lt;span style=&quot;font-weight: 400;&quot;&gt;«layer» Database&lt;/span&gt;" style="shape=folder;fontStyle=1;spacingTop=10;tabWidth=40;tabHeight=14;tabPosition=left;html=1;whiteSpace=wrap;" vertex="1" parent="1">
          <mxGeometry y="240" width="160" height="60" as="geometry" />
        </mxCell>
        <mxCell id="orYQmtHI8F-aZwIQTSZj-7" value="«allowed to use»" style="endArrow=open;endSize=12;dashed=1;html=1;rounded=0;exitX=0.5;exitY=1;exitDx=0;exitDy=0;exitPerimeter=0;entryX=0.5;entryY=0.2;entryDx=0;entryDy=0;entryPerimeter=0;" edge="1" parent="1" source="orYQmtHI8F-aZwIQTSZj-3" target="orYQmtHI8F-aZwIQTSZj-5">
          <mxGeometry width="160" relative="1" as="geometry">
            <mxPoint x="330" y="130" as="sourcePoint" />
            <mxPoint x="230" y="130" as="targetPoint" />
          </mxGeometry>
        </mxCell>
        <mxCell id="orYQmtHI8F-aZwIQTSZj-12" value="«allowed to use»" style="endArrow=open;endSize=12;dashed=1;html=1;rounded=0;exitX=0.5;exitY=1;exitDx=0;exitDy=0;exitPerimeter=0;entryX=0.5;entryY=0.2;entryDx=0;entryDy=0;entryPerimeter=0;" edge="1" parent="1">
          <mxGeometry width="160" relative="1" as="geometry">
            <mxPoint x="79.5" y="180" as="sourcePoint" />
            <mxPoint x="79.5" y="252" as="targetPoint" />
          </mxGeometry>
        </mxCell>
      </root>
    </mxGraphModel>
  </diagram>
</mxfile>
